<svg xmlns="http://www.w3.org/2000/svg" version="1.1" xmlns:xlink="http://www.w3.org/1999/xlink" xmlns:svgjs="http://svgjs.dev/svgjs" width="1000" height="1000" viewBox="0 0 1000 1000"><rect width="1000" height="1000" fill="#ffffff"></rect><g transform="matrix(0.7,0,0,0.7,149.57575757575756,381.0506398480179)"><svg viewBox="0 0 396 135" data-background-color="#ffffff" preserveAspectRatio="xMidYMid meet" height="340" width="1000" xmlns="http://www.w3.org/2000/svg" xmlns:xlink="http://www.w3.org/1999/xlink"><defs></defs><g id="tight-bounds" transform="matrix(1,0,0,1,0.2400000000000091,-0.028724283539560247)"><svg viewBox="0 0 395.52 135.05744762243052" height="135.05744762243052" width="395.52"><g><svg viewBox="0 0 397.4975999999999 135.73273486054265" height="135.05744762243052" width="395.52"><g><rect width="397.4975999999999" height="3.882733054811213" x="0" y="69.66605982504956" fill="#001f3f" opacity="1" stroke-width="0" stroke="transparent" fill-opacity="1" class="rect-o-0" data-fill-palette-color="primary" rx="1%" id="o-0" data-palette-color="#001f3f"></rect></g><g><rect width="397.4975999999999" height="3.882733054811213" x="0" y="78.63090420814771" fill="#001f3f" opacity="1" stroke-width="0" stroke="transparent" fill-opacity="1" class="rect-o-1" data-fill-palette-color="primary" rx="1%" id="o-1" data-palette-color="#001f3f"></rect></g><g transform="matrix(1,0,0,1,0.9887999999999693,92.67785991953278)"><svg viewBox="0 0 395.52 43.054874941009906" height="43.054874941009906" width="395.52"><g><svg viewBox="0 0 395.52 43.054874941009906" height="43.054874941009906" width="395.52"><g><svg viewBox="0 0 395.52 43.054874941009906" height="43.054874941009906" width="395.52"><g transform="matrix(1,0,0,1,0,0)"><svg width="395.52" viewBox="3.0999999046325684 -34.29999923706055 317.82000732421875 34.599998474121094" height="43.054874941009906" data-palette-color="#001f3f"><path d="M3.1 0L3.1-33.85Q3.45-33.85 4.78-33.88 6.1-33.9 7.7-33.9 9.3-33.9 10.9-33.93 12.5-33.95 13.5-33.95L13.5-33.95Q19.9-33.95 23.1-31.23 26.3-28.5 26.3-23.65L26.3-23.65Q26.3-18.3 22.7-15.63 19.1-12.95 12.85-12.95L12.85-12.95 11.35-12.95 11.35 0 3.1 0ZM11.35-28.4L11.35-18.4 13.45-18.4Q15.15-18.4 16.4-19.58 17.65-20.75 17.65-23.25L17.65-23.25Q17.65-25.35 16.63-26.9 15.6-28.45 13.2-28.5L13.2-28.5Q12.55-28.5 12.1-28.48 11.65-28.45 11.35-28.4L11.35-28.4ZM29.8-33.85L38-33.85 38-13.7Q38-11.5 38.47-10.05 38.95-8.6 39.77-7.7 40.6-6.8 41.75-6.43 42.9-6.05 44.2-6.05L44.2-6.05Q46.9-6.05 48.32-7.98 49.75-9.9 49.75-13.7L49.75-13.7 49.75-33.85 58-33.85 58-13.25Q58-10.55 57.25-8.1 56.5-5.65 54.77-3.78 53.05-1.9 50.3-0.8 47.55 0.3 43.55 0.3L43.55 0.3Q39.7 0.3 37.07-0.83 34.45-1.95 32.85-3.83 31.25-5.7 30.52-8.15 29.8-10.6 29.8-13.25L29.8-13.25 29.8-33.85ZM63.7 0L63.7-33.85Q64.14-33.85 65.52-33.88 66.89-33.9 68.55-33.9 70.19-33.9 71.75-33.93 73.3-33.95 74.09-33.95L74.09-33.95Q80.44-33.95 83.67-31.58 86.89-29.2 86.89-25.15L86.89-25.15Q86.89-22.6 85.27-20.65 83.64-18.7 80.5-17.65L80.5-17.65Q84.25-16.55 86.07-14.45 87.89-12.35 87.89-9.45L87.89-9.45Q87.89 0.05 73.55 0.05L73.55 0.05Q72.84 0.05 71.42 0.05 70 0.05 68.44 0.03 66.89 0 65.57 0 64.25 0 63.7 0L63.7 0ZM71.94-14.4L71.94-5.4 74.39-5.4Q75.39-5.4 76.27-5.6 77.14-5.8 77.8-6.28 78.44-6.75 78.82-7.58 79.19-8.4 79.19-9.65L79.19-9.65Q79.19-10.6 78.94-11.48 78.69-12.35 78.09-13.03 77.5-13.7 76.52-14.1 75.55-14.5 74.14-14.5L74.14-14.5Q73.44-14.5 72.87-14.48 72.3-14.45 71.94-14.4L71.94-14.4ZM71.94-28.45L71.94-19.65 74.25-19.65Q75.8-19.65 77.02-20.6 78.25-21.55 78.25-24.05L78.25-24.05Q78.25-26.15 77.27-27.33 76.3-28.5 74.05-28.5L74.05-28.5Q73.39-28.5 72.82-28.5 72.25-28.5 71.94-28.45L71.94-28.45ZM92.39 0L92.39-33.85 100.64-33.85 100.64-6.05 112.54-6.05 112.54 0 92.39 0ZM115.29 0L115.29-33.85 123.54-33.85 123.54 0 115.29 0ZM153.49-30.15L148.99-25.6Q147.59-27.3 146.29-27.88 144.99-28.45 143.69-28.45L143.69-28.45Q140.44-28.45 138.96-25.43 137.49-22.4 137.49-17.05L137.49-17.05Q137.49-14.5 137.81-12.38 138.14-10.25 138.94-8.75 139.74-7.25 141.06-6.4 142.39-5.55 144.39-5.55L144.39-5.55Q146.14-5.55 147.81-5.98 149.49-6.4 150.89-6.95L150.89-6.95 152.69-1.35Q151.14-0.7 148.79-0.2 146.44 0.3 143.39 0.3L143.39 0.3Q135.69 0.3 132.14-4.08 128.59-8.45 128.59-16.5L128.59-16.5Q128.59-20.4 129.51-23.65 130.44-26.9 132.31-29.28 134.19-31.65 137.01-32.98 139.84-34.3 143.69-34.3L143.69-34.3Q145.69-34.3 147.21-33.95 148.74-33.6 149.89-33.02 151.04-32.45 151.91-31.7 152.79-30.95 153.49-30.15L153.49-30.15ZM189.88 0L189.88-14.5 178.18-14.5 178.18 0 169.93 0 169.93-33.85 178.18-33.85 178.18-20.6 189.88-20.6 189.88-33.85 198.08-33.85 198.08 0 189.88 0ZM218.88-34.3Q222.83-34.3 225.68-33.1 228.53-31.9 230.38-29.7 232.23-27.5 233.11-24.33 233.98-21.15 233.98-17.2L233.98-17.2Q233.98-13.3 233.01-10.08 232.03-6.85 230.08-4.55 228.13-2.25 225.18-0.98 222.23 0.3 218.23 0.3L218.23 0.3Q214.28 0.3 211.41-0.83 208.53-1.95 206.68-4.13 204.83-6.3 203.96-9.4 203.08-12.5 203.08-16.5L203.08-16.5Q203.08-20.4 204.06-23.68 205.03-26.95 206.98-29.33 208.93-31.7 211.91-33 214.88-34.3 218.88-34.3L218.88-34.3ZM218.18-28.45Q214.93-28.45 213.46-25.43 211.98-22.4 211.98-17.05L211.98-17.05Q211.98-14.5 212.31-12.4 212.63-10.3 213.41-8.78 214.18-7.25 215.53-6.4 216.88-5.55 218.93-5.55L218.93-5.55Q222.18-5.55 223.63-8.45 225.08-11.35 225.08-16.7L225.08-16.7Q225.08-19.25 224.76-21.4 224.43-23.55 223.66-25.13 222.88-26.7 221.53-27.58 220.18-28.45 218.18-28.45L218.18-28.45ZM238.48-33.85L246.68-33.85 246.68-13.7Q246.68-11.5 247.15-10.05 247.63-8.6 248.45-7.7 249.28-6.8 250.43-6.43 251.58-6.05 252.88-6.05L252.88-6.05Q255.58-6.05 257-7.98 258.43-9.9 258.43-13.7L258.43-13.7 258.43-33.85 266.68-33.85 266.68-13.25Q266.68-10.55 265.93-8.1 265.18-5.65 263.45-3.78 261.73-1.9 258.98-0.8 256.23 0.3 252.23 0.3L252.23 0.3Q248.38 0.3 245.75-0.83 243.13-1.95 241.53-3.83 239.93-5.7 239.2-8.15 238.48-10.6 238.48-13.25L238.48-13.25 238.48-33.85ZM282.63-34.3L282.63-34.3Q284.43-34.3 286.1-34 287.78-33.7 289.23-33.25 290.68-32.8 291.85-32.23 293.03-31.65 293.88-31.05L293.88-31.05 290.98-25.55Q290.38-25.85 289.53-26.33 288.68-26.8 287.7-27.25 286.73-27.7 285.7-28 284.68-28.3 283.73-28.3L283.73-28.3Q281.98-28.3 281.13-27.58 280.28-26.85 280.28-25.75L280.28-25.75Q280.33-24.9 280.68-24.25 281.03-23.6 281.73-22.98 282.43-22.35 283.53-21.75 284.63-21.15 286.23-20.5L286.23-20.5Q288.23-19.65 289.73-18.75 291.23-17.85 292.2-16.7 293.18-15.55 293.68-14.1 294.18-12.65 294.18-10.75L294.18-10.75Q294.18-8.45 293.35-6.43 292.53-4.4 290.98-2.9 289.43-1.4 287.23-0.55 285.03 0.3 282.28 0.3L282.28 0.3Q280.33 0.3 278.55-0.05 276.78-0.4 275.28-0.95 273.78-1.5 272.53-2.13 271.28-2.75 270.38-3.3L270.38-3.3 273.08-9.2Q273.43-8.95 274.38-8.38 275.33-7.8 276.53-7.23 277.73-6.65 278.98-6.2 280.23-5.75 281.23-5.75L281.23-5.75Q283.33-5.75 284.3-6.73 285.28-7.7 285.28-9.5L285.28-9.5Q285.28-11.3 284.05-12.23 282.83-13.15 280.58-14.05L280.58-14.05Q278.38-14.95 276.68-15.95 274.98-16.95 273.8-18.2 272.63-19.45 272-21 271.38-22.55 271.38-24.6L271.38-24.6Q271.38-26.85 272.3-28.63 273.23-30.4 274.78-31.68 276.33-32.95 278.35-33.63 280.38-34.3 282.63-34.3ZM298.67 0L298.67-33.85 320.22-33.85 320.22-27.8 306.92-27.8 306.92-20.55 317.97-20.55 317.02-14.6 306.92-14.6 306.92-6.05 320.92-6.05 320.92 0 298.67 0Z" opacity="1" transform="matrix(1,0,0,1,0,0)" fill="#001f3f" class="undefined-text-0" data-fill-palette-color="primary" id="text-0"></path></svg></g></svg></g></svg></g></svg></g><g transform="matrix(1,0,0,1,155.82230194020883,0)"><svg viewBox="0 0 85.85299611958223 59.501837168475696" height="59.501837168475696" width="85.85299611958223"><g><svg xmlns="http://www.w3.org/2000/svg" xmlns:xlink="http://www.w3.org/1999/xlink" version="1.1" x="0" y="0" viewBox="1.0840001106262207 10.572999954223633 61.83100128173828 42.852996826171875" enable-background="new 0 0 64 64" xml:space="preserve" height="59.501837168475696" width="85.85299611958223" class="icon-icon-0" data-fill-palette-color="accent" id="icon-0"><g fill="#111111" data-fill-palette-color="accent"><path d="M4.208 53.426c-1.723 0-3.124-1.4-3.124-3.121V13.696c0-1.722 1.401-3.123 3.124-3.123h55.583c1.723 0 3.124 1.401 3.124 3.123v36.607c0 1.722-1.401 3.122-3.124 3.122L4.208 53.426zM4.208 12.573c-0.62 0-1.124 0.503-1.124 1.123v36.609c0 0.618 0.504 1.121 1.124 1.121l55.583-0.001c0.62 0 1.124-0.503 1.124-1.122V13.696c0-0.619-0.504-1.123-1.124-1.123H4.208z" fill="#111111" data-fill-palette-color="accent"></path><path d="M55.971 49.604H8.03c-1.722 0-3.124-1.401-3.124-3.123V17.519c0-1.723 1.401-3.124 3.124-3.124h47.941c1.722 0 3.123 1.401 3.123 3.124V46.48C59.094 48.202 57.692 49.604 55.971 49.604zM8.03 16.395c-0.62 0-1.124 0.504-1.124 1.124V46.48c0 0.619 0.504 1.123 1.124 1.123h47.941c0.619 0 1.123-0.504 1.123-1.123V17.519c0-0.62-0.504-1.124-1.123-1.124H8.03z" fill="#111111" data-fill-palette-color="accent"></path><path d="M7.899 20.381c-1.65 0-2.993-1.342-2.993-2.993s1.342-2.993 2.993-2.993 2.993 1.343 2.993 2.993S9.549 20.381 7.899 20.381zM7.899 16.395c-0.547 0-0.993 0.445-0.993 0.993 0 0.547 0.445 0.993 0.993 0.993 0.548 0 0.993-0.445 0.993-0.993C8.892 16.84 8.447 16.395 7.899 16.395z" fill="#111111" data-fill-palette-color="accent"></path><path d="M32 20.382c-1.651 0-2.994-1.343-2.994-2.994s1.343-2.994 2.994-2.994c1.651 0 2.994 1.343 2.994 2.994S33.651 20.382 32 20.382zM32 16.394c-0.548 0-0.994 0.446-0.994 0.994 0 0.548 0.446 0.994 0.994 0.994 0.548 0 0.994-0.446 0.994-0.994C32.994 16.84 32.548 16.394 32 16.394z" fill="#111111" data-fill-palette-color="accent"></path><path d="M56.1 20.382c-1.651 0-2.994-1.343-2.994-2.994s1.343-2.994 2.994-2.994 2.994 1.343 2.994 2.994S57.751 20.382 56.1 20.382zM56.1 16.394c-0.548 0-0.994 0.446-0.994 0.994 0 0.548 0.446 0.994 0.994 0.994s0.994-0.446 0.994-0.994C57.094 16.84 56.647 16.394 56.1 16.394z" fill="#111111" data-fill-palette-color="accent"></path><path d="M7.899 48.285c-1.65 0-2.993-1.343-2.993-2.993s1.342-2.993 2.993-2.993 2.993 1.343 2.993 2.993S9.549 48.285 7.899 48.285zM7.899 44.299c-0.547 0-0.993 0.445-0.993 0.993s0.445 0.993 0.993 0.993c0.548 0 0.993-0.445 0.993-0.993S8.447 44.299 7.899 44.299z" fill="#111111" data-fill-palette-color="accent"></path><path d="M32 49.604c-1.651 0-2.994-1.343-2.994-2.994 0-1.65 1.343-2.993 2.994-2.993 1.651 0 2.994 1.343 2.994 2.993C34.994 48.261 33.651 49.604 32 49.604zM32 45.616c-0.548 0-0.994 0.445-0.994 0.993s0.446 0.994 0.994 0.994c0.548 0 0.994-0.446 0.994-0.994S32.548 45.616 32 45.616z" fill="#111111" data-fill-palette-color="accent"></path><path d="M56.1 48.286c-1.651 0-2.994-1.343-2.994-2.994s1.343-2.994 2.994-2.994 2.994 1.343 2.994 2.994S57.751 48.286 56.1 48.286zM56.1 44.298c-0.548 0-0.994 0.446-0.994 0.994s0.446 0.994 0.994 0.994 0.994-0.446 0.994-0.994S56.647 44.298 56.1 44.298z" fill="#111111" data-fill-palette-color="accent"></path><path d="M16.21 39.065L16.21 39.065c-0.842-0.001-1.749-0.651-1.749-2.079V25.664c0-1.428 0.907-2.078 1.749-2.078 0.458 0 0.919 0.171 1.373 0.508l7.135 5.295c0.657 0.488 1.034 1.193 1.034 1.937 0 0.743-0.377 1.448-1.034 1.936l-7.135 5.297C17.129 38.895 16.668 39.065 16.21 39.065zM16.461 25.752v11.147l7.064-5.244c0.144-0.107 0.226-0.227 0.226-0.33 0-0.104-0.082-0.224-0.226-0.33L16.461 25.752z" fill="#111111" data-fill-palette-color="accent"></path><polygon points="27.264,37.67 51.157,23.053 52.105,24.664 27.727,38.46  " fill="#111111" data-fill-palette-color="accent"></polygon></g></svg></g></svg></g><g></g></svg></g></svg><rect width="395.52" height="135.05744762243052" fill="none" stroke="none" visibility="hidden"></rect></g></svg></g></svg>